<svg width="228" height="79" viewBox="0 0 228 79" fill="none" xmlns="http://www.w3.org/2000/svg">
<ellipse cx="189.566" cy="39.3248" rx="37.6197" ry="39.3248" fill="#7D5BA6"/>
<path d="M0 15C0 6.71573 6.71573 0 15 0H189.383V78.6497H15C6.71575 78.6497 0 71.934 0 63.6497V15Z" fill="#7D5BA6"/>
<path d="M18.1189 27.8618H25.7189C27.9269 27.8618 29.8736 28.2992 31.5589 29.1738C33.2442 30.0485 34.5616 31.2912 35.5109 32.9018C36.4709 34.5018 36.9509 36.4112 36.9509 38.6298C36.9509 40.8165 36.4709 42.7152 35.5109 44.3258C34.5616 45.9258 33.2442 47.1632 31.5589 48.0378C29.8736 48.9018 27.9269 49.3338 25.7189 49.3338H18.1189V27.8618ZM23.2389 32.5658V44.6618H25.7189C26.8816 44.6618 27.8842 44.4005 28.7269 43.8778C29.5802 43.3445 30.2362 42.6245 30.6949 41.7178C31.1642 40.8112 31.3989 39.7818 31.3989 38.6298C31.3989 37.4352 31.1642 36.3845 30.6949 35.4778C30.2362 34.5712 29.5802 33.8618 28.7269 33.3498C27.8842 32.8272 26.8816 32.5658 25.7189 32.5658H23.2389ZM40.8179 27.8618H45.9379V40.8858C45.9379 42.4112 46.3272 43.5098 47.1059 44.1818C47.8846 44.8538 48.8606 45.1898 50.0339 45.1898C51.2286 45.1898 52.2152 44.8538 52.9939 44.1818C53.7832 43.5098 54.1779 42.4112 54.1779 40.8858V27.8618H59.2819V40.8858C59.2819 42.6992 58.9246 44.2778 58.2099 45.6218C57.4952 46.9658 56.4499 48.0058 55.0739 48.7418C53.6979 49.4778 52.0179 49.8458 50.0339 49.8458C48.0499 49.8458 46.3699 49.4778 44.9939 48.7418C43.6286 48.0058 42.5886 46.9658 41.8739 45.6218C41.1699 44.2778 40.8179 42.6992 40.8179 40.8858V27.8618ZM64.3064 27.8618H71.6344L76.3864 39.3178H75.9864L80.7384 27.8618H87.7784V49.3338H82.6264V34.0538H83.3304L77.8104 47.3338H74.4984L69.0104 34.0858H69.4264V49.3338H64.3064V27.8618ZM93.2126 27.8618H100.541L105.293 39.3178H104.893L109.645 27.8618H116.685V49.3338H111.533V34.0538H112.237L106.717 47.3338H103.405L97.9166 34.0858H98.3326V49.3338H93.2126V27.8618ZM119.575 27.8618H125.591L129.719 35.9098H128.887L133.287 27.8618H139.287L131.767 40.4218V49.3338H126.679V40.4218L119.575 27.8618Z" fill="white"/>
<ellipse cx="189.566" cy="39.133" rx="23.3059" ry="24.1704" fill="white"/>
</svg>
